<svg width="87" height="32" viewBox="0 0 87 32" fill="none" xmlns="http://www.w3.org/2000/svg">
<g id="logo_for_mobile_presentaion 1" clip-path="url(#clip0_46_23100)">
<g id="Group">
<path id="Vector" fill-rule="evenodd" clip-rule="evenodd" d="M8.39446 28.7771V25.2881H7.50419V28.5356C7.50419 28.8564 7.4249 29.1015 7.2627 29.2673C7.10051 29.4331 6.85902 29.5196 6.53463 29.5196C6.21024 29.5196 5.96875 29.4475 5.81376 29.3069C5.65877 29.1663 5.57948 28.9068 5.57948 28.5356V25.2881H4.68921V28.7843C4.68921 28.9789 4.71804 29.1663 4.77932 29.3394C4.84059 29.5124 4.94151 29.6637 5.08569 29.7935C5.22986 29.9233 5.42089 30.0278 5.65877 30.1071C5.89666 30.1828 6.18861 30.2224 6.54184 30.2224C7.13295 30.2224 7.5907 30.0963 7.91509 29.8404C8.23948 29.5844 8.39807 29.2312 8.39807 28.7771H8.39446Z" fill="#81827E"/>
<path id="Vector_2" fill-rule="evenodd" clip-rule="evenodd" d="M12.4061 28.9064C12.4061 28.791 12.3916 28.6793 12.3592 28.5712C12.3268 28.463 12.2763 28.3585 12.2006 28.2648C12.1249 28.1675 12.024 28.081 11.8942 28.0053C11.7645 27.926 11.6023 27.8611 11.4077 27.8107L10.9211 27.6845C10.7264 27.634 10.5895 27.5728 10.5102 27.5043C10.4345 27.4358 10.3948 27.3421 10.3948 27.2268C10.3948 27.079 10.4489 26.96 10.557 26.8663C10.6652 26.7762 10.8093 26.7294 10.9896 26.7294C11.1445 26.7294 11.2959 26.751 11.4473 26.7978C11.5987 26.8447 11.7645 26.9168 11.9447 27.0141L12.2258 26.4158C12.06 26.3257 11.869 26.2464 11.6528 26.1743C11.4365 26.1022 11.195 26.0662 10.9247 26.0662C10.7084 26.0662 10.5066 26.0986 10.33 26.1599C10.1498 26.2211 9.99477 26.3077 9.86501 26.4158C9.73525 26.5239 9.63433 26.6573 9.56585 26.8087C9.49737 26.96 9.46133 27.133 9.46133 27.3169C9.46133 27.598 9.54423 27.8323 9.71002 28.0197C9.87582 28.2071 10.1065 28.3333 10.4021 28.3982L10.8778 28.4991C11.1013 28.5459 11.2635 28.6108 11.3644 28.6973C11.4653 28.7838 11.5158 28.8992 11.5158 29.0505C11.5158 29.2163 11.4545 29.3497 11.3356 29.4506C11.2166 29.5516 11.0653 29.602 10.8778 29.602C10.6544 29.602 10.4309 29.5588 10.2074 29.4723C9.98395 29.3858 9.78211 29.292 9.6055 29.1875L9.30273 29.8003C9.55504 29.9408 9.81095 30.0489 10.0632 30.1246C10.3156 30.2003 10.5643 30.2364 10.8166 30.2364C11.0689 30.2364 11.2707 30.2039 11.4653 30.1391C11.66 30.0742 11.8258 29.9841 11.9663 29.8687C12.1069 29.7534 12.215 29.6092 12.2943 29.4434C12.3736 29.2776 12.4097 29.0974 12.4097 28.8992L12.4061 28.9064Z" fill="#81827E"/>
<path id="Vector_3" fill-rule="evenodd" clip-rule="evenodd" d="M14.0821 28.4022H16.4465V28.2219C16.4465 27.7642 16.4033 27.4074 16.3168 27.1406C16.2303 26.8775 16.1041 26.6649 15.9311 26.5099C15.7653 26.3585 15.5923 26.254 15.4121 26.1963C15.2319 26.135 15.0444 26.1062 14.8462 26.1062C14.5975 26.1062 14.374 26.1495 14.1758 26.236C13.9776 26.3225 13.8009 26.4558 13.6387 26.636C13.4657 26.8343 13.3432 27.0505 13.2639 27.292C13.1846 27.5335 13.1486 27.8255 13.1486 28.1751C13.1486 28.4923 13.1918 28.777 13.2783 29.0293C13.3648 29.2816 13.4838 29.5015 13.6387 29.6781C13.7937 29.8583 13.9848 29.9953 14.2082 30.089C14.4317 30.1863 14.684 30.2332 14.9651 30.2332C15.4986 30.2332 15.9708 30.0565 16.3816 29.7069L16.0464 29.1843C15.7401 29.4438 15.4085 29.5736 15.0589 29.5736C14.8642 29.5736 14.7056 29.5411 14.5831 29.4763C14.4569 29.4114 14.356 29.3285 14.2803 29.2203C14.2046 29.1158 14.1542 28.9933 14.1253 28.8599C14.0965 28.7266 14.0821 28.5932 14.0821 28.4598V28.3986V28.4022ZM15.5527 27.7786H14.0821C14.0821 27.4542 14.1434 27.2055 14.2695 27.0289C14.3957 26.8523 14.5831 26.7658 14.8354 26.7658C15.0553 26.7658 15.2283 26.8523 15.358 27.0289C15.4878 27.2055 15.549 27.4542 15.549 27.7786H15.5527Z" fill="#81827E"/>
<path id="Vector_4" fill-rule="evenodd" clip-rule="evenodd" d="M19.2544 26.9638L19.5175 26.1564C19.4238 26.1132 19.3229 26.0916 19.2148 26.0916C19.0237 26.0916 18.8471 26.142 18.6849 26.2429C18.5227 26.3439 18.3677 26.5024 18.2092 26.7223C18.2092 26.488 18.1587 26.2826 18.0614 26.0988L17.2756 26.3006C17.3153 26.4195 17.3513 26.5637 17.3766 26.7331C17.4018 26.9025 17.4162 27.1116 17.4162 27.3603V30.1356H18.2704V27.49C18.3137 27.3314 18.4002 27.1945 18.5335 27.0791C18.6669 26.9674 18.8255 26.9097 19.0093 26.9097C19.0562 26.9097 19.0958 26.9133 19.1355 26.9242C19.1715 26.935 19.2112 26.9458 19.2508 26.9638H19.2544Z" fill="#81827E"/>
<path id="Vector_5" fill-rule="evenodd" clip-rule="evenodd" d="M21.6874 30.1359H24.733V29.4331H22.5776V27.9301H24.2248V27.2633H22.5776V25.9549H24.542L24.6573 25.2881H21.6874V30.1359Z" fill="#81827E"/>
<path id="Vector_6" fill-rule="evenodd" clip-rule="evenodd" d="M28.1067 30.1358H29.1807L27.7426 27.9948L28.8996 26.2106H27.9048C27.8724 26.2503 27.8291 26.326 27.7715 26.4305C27.7138 26.535 27.6525 26.6504 27.5876 26.7765C27.5228 26.9027 27.4615 27.0216 27.4038 27.1406C27.3461 27.2595 27.3065 27.3496 27.2777 27.4145C27.2308 27.3208 27.1767 27.2163 27.1155 27.1009C27.0542 26.9856 26.9893 26.8666 26.9208 26.7513C26.8523 26.636 26.7875 26.5206 26.7262 26.4125C26.6649 26.3044 26.6109 26.2106 26.564 26.1313L25.6377 26.3188L26.7731 28.0056L25.3097 30.1358H26.391C26.427 30.0853 26.4847 29.9916 26.5676 29.8582C26.6469 29.7249 26.7334 29.5843 26.8199 29.4293C26.9064 29.2779 26.9893 29.1302 27.0686 28.9896C27.1515 28.849 27.2128 28.7445 27.2488 28.6724C27.2704 28.7084 27.3173 28.7913 27.3966 28.9211C27.4759 29.0545 27.5588 29.2022 27.6525 29.3644C27.7462 29.5266 27.8363 29.678 27.9192 29.8258C28.0057 29.9736 28.067 30.0745 28.1031 30.1322L28.1067 30.1358Z" fill="#81827E"/>
<path id="Vector_7" fill-rule="evenodd" clip-rule="evenodd" d="M33.0915 28.0849C33.0915 27.7425 33.0519 27.447 32.969 27.1983C32.8897 26.9496 32.7779 26.7477 32.641 26.5891C32.504 26.4305 32.3454 26.3116 32.1652 26.2359C31.985 26.1566 31.7976 26.1206 31.5993 26.1206C31.3903 26.1206 31.1956 26.1602 31.0082 26.2395C30.8208 26.3188 30.6694 26.4341 30.5432 26.5855C30.5396 26.4666 30.5324 26.3729 30.5252 26.3044C30.518 26.2359 30.5036 26.171 30.482 26.1025L29.6926 26.2431C29.707 26.3152 29.7215 26.3837 29.7323 26.4486C29.7431 26.5134 29.7503 26.5819 29.7575 26.6576C29.7611 26.7333 29.7647 26.8162 29.7683 26.9063C29.7683 26.9964 29.7719 27.1009 29.7719 27.2199V31.8082L30.5865 31.5991V30.2836C30.5865 30.1754 30.5865 30.0853 30.5793 30.0132L30.5721 29.8979C30.8496 30.1106 31.1632 30.2151 31.5128 30.2151C31.7651 30.2151 31.9886 30.1646 32.1832 30.0673C32.3779 29.97 32.5437 29.8258 32.677 29.6384C32.8104 29.451 32.9113 29.2275 32.9834 28.9644C33.0555 28.7013 33.0879 28.4093 33.0879 28.0813L33.0915 28.0849ZM32.158 28.1822C32.158 28.658 32.0931 29.004 31.9634 29.2239C31.8336 29.4438 31.6209 29.5519 31.3218 29.5519C31.192 29.5519 31.0623 29.5194 30.9361 29.4546C30.81 29.3897 30.691 29.3032 30.5901 29.1987V27.2235C30.828 26.9532 31.1091 26.8162 31.4263 26.8162C31.7075 26.8162 31.9021 26.9315 32.003 27.1658C32.1075 27.4001 32.158 27.7353 32.158 28.1822Z" fill="#81827E"/>
<path id="Vector_8" fill-rule="evenodd" clip-rule="evenodd" d="M34.8432 28.4022H37.2076V28.2219C37.2076 27.7642 37.1644 27.4074 37.0779 27.1406C36.9914 26.8775 36.8652 26.6649 36.6922 26.5099C36.5264 26.3585 36.3534 26.254 36.1732 26.1963C35.993 26.135 35.8055 26.1062 35.6073 26.1062C35.3586 26.1062 35.1351 26.1495 34.9369 26.236C34.7387 26.3225 34.5584 26.4558 34.3999 26.636C34.2268 26.8343 34.1043 27.0505 34.025 27.292C33.9457 27.5335 33.9097 27.8255 33.9097 28.1751C33.9097 28.4923 33.9529 28.777 34.0394 29.0293C34.1259 29.2816 34.2449 29.5015 34.3999 29.6781C34.5548 29.8583 34.7459 29.9953 34.9693 30.089C35.1928 30.1863 35.4451 30.2332 35.7263 30.2332C36.2597 30.2332 36.7319 30.0565 37.1428 29.7069L36.8076 29.1843C36.5012 29.4438 36.1696 29.5736 35.8236 29.5736C35.6289 29.5736 35.4703 29.5411 35.3478 29.4763C35.2216 29.4114 35.1207 29.3285 35.045 29.2203C34.9693 29.1158 34.9189 28.9933 34.89 28.8599C34.8612 28.7266 34.8468 28.5932 34.8468 28.4598V28.3986L34.8432 28.4022ZM36.3138 27.7786H34.8432C34.8432 27.4542 34.9045 27.2055 35.0306 27.0289C35.1568 26.8523 35.3442 26.7658 35.5965 26.7658C35.8164 26.7658 35.9894 26.8523 36.1191 27.0289C36.2489 27.2055 36.3102 27.4542 36.3102 27.7786H36.3138Z" fill="#81827E"/>
<path id="Vector_9" fill-rule="evenodd" clip-rule="evenodd" d="M40.0153 26.9638L40.2784 26.1564C40.1847 26.1132 40.0838 26.0916 39.9756 26.0916C39.7846 26.0916 39.608 26.142 39.4458 26.2429C39.2836 26.3439 39.1286 26.5024 38.97 26.7223C38.97 26.488 38.9196 26.2826 38.8222 26.0988L38.0365 26.3006C38.0798 26.4195 38.1122 26.5637 38.1374 26.7331C38.1627 26.9025 38.1771 27.1116 38.1771 27.3603V30.1356H39.0313V27.49C39.0745 27.3314 39.161 27.1945 39.2944 27.0791C39.4278 26.9674 39.5864 26.9097 39.7702 26.9097C39.817 26.9097 39.8567 26.9133 39.8963 26.9242C39.9324 26.935 39.972 26.9458 40.0117 26.9638H40.0153Z" fill="#81827E"/>
<path id="Vector_10" fill-rule="evenodd" clip-rule="evenodd" d="M41.0354 30.1356H41.8896V26.1096L41.0354 26.2646V30.1356ZM42.0302 25.0499C42.0302 24.8841 41.9761 24.7471 41.8644 24.639C41.7527 24.5309 41.6229 24.4768 41.4751 24.4768C41.3165 24.4768 41.1832 24.5309 41.075 24.6426C40.9669 24.7543 40.9128 24.8913 40.9128 25.0499C40.9128 25.2085 40.9669 25.3382 41.0714 25.45C41.176 25.5617 41.3057 25.6158 41.4607 25.6158C41.6157 25.6158 41.7563 25.5617 41.8644 25.45C41.9761 25.3382 42.0302 25.2049 42.0302 25.0499Z" fill="#81827E"/>
<path id="Vector_11" fill-rule="evenodd" clip-rule="evenodd" d="M43.8936 28.4022H46.258V28.2219C46.258 27.7642 46.2148 27.4074 46.1283 27.1406C46.0418 26.8775 45.9156 26.6649 45.7426 26.5099C45.5768 26.3585 45.4038 26.254 45.2236 26.1963C45.0434 26.135 44.856 26.1062 44.6577 26.1062C44.409 26.1062 44.1856 26.1495 43.9873 26.236C43.7891 26.3225 43.6089 26.4558 43.4503 26.636C43.2773 26.8343 43.1547 27.0505 43.0754 27.292C42.9961 27.5335 42.9601 27.8255 42.9601 28.1751C42.9601 28.4923 43.0033 28.777 43.0898 29.0293C43.1763 29.2816 43.2953 29.5015 43.4503 29.6781C43.6053 29.8583 43.7963 29.9953 44.0198 30.089C44.2432 30.1863 44.4955 30.2332 44.7767 30.2332C45.3101 30.2332 45.7823 30.0565 46.1932 29.7069L45.858 29.1843C45.5516 29.4438 45.22 29.5736 44.874 29.5736C44.6793 29.5736 44.5208 29.5411 44.3982 29.4763C44.2721 29.4114 44.1711 29.3285 44.0954 29.2203C44.0198 29.1158 43.9693 28.9933 43.9405 28.8599C43.9116 28.7266 43.8972 28.5932 43.8972 28.4598V28.3986L43.8936 28.4022ZM45.3642 27.7786H43.8936C43.8936 27.4542 43.9549 27.2055 44.081 27.0289C44.2072 26.8523 44.3946 26.7658 44.6469 26.7658C44.8668 26.7658 45.0398 26.8523 45.1695 27.0289C45.2993 27.2055 45.3606 27.4542 45.3606 27.7786H45.3642Z" fill="#81827E"/>
<path id="Vector_12" fill-rule="evenodd" clip-rule="evenodd" d="M49.3397 30.136H50.194V27.1984C50.194 26.8344 50.1002 26.5641 49.9128 26.3839C49.7254 26.2036 49.4767 26.1135 49.1631 26.1135C48.9433 26.1135 48.745 26.1604 48.5576 26.2505C48.3738 26.3406 48.1719 26.4776 47.9521 26.6578C47.9521 26.5533 47.9412 26.4559 47.916 26.3658C47.8944 26.2757 47.8583 26.1856 47.8115 26.0991L47.033 26.3154C47.0906 26.4559 47.1303 26.5929 47.1483 26.7299C47.1699 26.8668 47.1807 27.0398 47.1807 27.2453V30.136H48.035V27.2885C48.1647 27.1588 48.3053 27.0543 48.4639 26.9714C48.6225 26.8885 48.763 26.8488 48.8856 26.8488C49.0478 26.8488 49.1631 26.8957 49.2316 26.9894C49.2965 27.0831 49.3325 27.2633 49.3325 27.5336V30.1396L49.3397 30.136Z" fill="#81827E"/>
<path id="Vector_13" fill-rule="evenodd" clip-rule="evenodd" d="M54.1405 29.7105L53.7332 29.1879C53.4737 29.4474 53.207 29.5772 52.9331 29.5772C52.7204 29.5772 52.5438 29.5015 52.4068 29.3537C52.2302 29.1627 52.1401 28.8058 52.1401 28.2868C52.1401 28.0381 52.1545 27.8255 52.1798 27.6452C52.205 27.465 52.2483 27.3137 52.3059 27.1983C52.4357 26.9352 52.6447 26.8054 52.9331 26.8054C53.1457 26.8054 53.3692 26.9064 53.5999 27.1082L54.0324 26.5387C53.8558 26.3693 53.6864 26.2576 53.5206 26.1963C53.3548 26.135 53.1638 26.1062 52.9439 26.1062C52.724 26.1062 52.5114 26.1495 52.3023 26.236C52.0933 26.3225 51.9058 26.4522 51.7473 26.6288C51.5851 26.8054 51.4553 27.0253 51.358 27.2884C51.2607 27.5515 51.2102 27.8651 51.2102 28.2219C51.2102 28.8635 51.3544 29.3609 51.6391 29.7141C51.9239 30.0674 52.3384 30.244 52.8826 30.244C53.1457 30.244 53.3764 30.2007 53.5746 30.1178C53.7729 30.0349 53.9603 29.9016 54.1405 29.7177V29.7105Z" fill="#81827E"/>
<path id="Vector_14" fill-rule="evenodd" clip-rule="evenodd" d="M55.568 28.4022H57.9325V28.2219C57.9325 27.7642 57.8892 27.4074 57.8027 27.1406C57.7162 26.8775 57.5901 26.6649 57.4171 26.5099C57.2513 26.3585 57.0783 26.254 56.898 26.1963C56.7178 26.135 56.5304 26.1062 56.3322 26.1062C56.0835 26.1062 55.86 26.1495 55.6618 26.236C55.4635 26.3225 55.2833 26.4558 55.1247 26.636C54.9517 26.8343 54.8292 27.0505 54.7499 27.292C54.6706 27.5335 54.6345 27.8255 54.6345 28.1751C54.6345 28.4923 54.6778 28.777 54.7643 29.0293C54.8508 29.2816 54.9697 29.5015 55.1247 29.6781C55.2797 29.8583 55.4707 29.9953 55.6942 30.089C55.9177 30.1863 56.17 30.2332 56.4511 30.2332C56.9845 30.2332 57.4567 30.0565 57.8676 29.7069L57.5324 29.1843C57.226 29.4438 56.8944 29.5736 56.5484 29.5736C56.3538 29.5736 56.1952 29.5411 56.0727 29.4763C55.9465 29.4114 55.8456 29.3285 55.7699 29.2203C55.6942 29.1158 55.6437 28.9933 55.6149 28.8599C55.5861 28.7266 55.5716 28.5932 55.5716 28.4598V28.3986L55.568 28.4022ZM57.0386 27.7786H55.568C55.568 27.4542 55.6293 27.2055 55.7555 27.0289C55.8816 26.8523 56.069 26.7658 56.3213 26.7658C56.5412 26.7658 56.7142 26.8523 56.844 27.0289C56.9737 27.2055 57.035 27.4542 57.035 27.7786H57.0386Z" fill="#81827E"/>
<path id="Vector_15" fill-rule="evenodd" clip-rule="evenodd" d="M64.2472 27.7246C64.2472 26.9641 64.0525 26.3802 63.6633 25.9729C63.5407 25.8432 63.4074 25.735 63.2632 25.6485C63.1226 25.562 62.964 25.4935 62.7946 25.4395C62.6252 25.3854 62.4378 25.3458 62.2323 25.3241C62.0269 25.2989 61.7998 25.2881 61.5547 25.2881H60.4374V30.1395H61.7638C62.0125 30.1395 62.2323 30.1287 62.4198 30.1071C62.6072 30.0855 62.7766 30.0494 62.928 29.9953C63.0794 29.9413 63.2127 29.8728 63.3317 29.7863C63.4506 29.6998 63.5659 29.5917 63.6813 29.4619C63.8615 29.2528 64.0021 29.0042 64.0994 28.7158C64.1967 28.4275 64.2472 28.0995 64.2472 27.7318V27.7246ZM63.2416 27.8003C63.2416 28.3518 63.1406 28.7663 62.9352 29.0474C62.7297 29.3285 62.3909 29.4691 61.9152 29.4691H61.324V25.9188H61.8899C62.1386 25.9188 62.3369 25.9513 62.4882 26.0126C62.6396 26.0738 62.7766 26.1856 62.8991 26.3369C63.0397 26.51 63.1298 26.719 63.1731 26.9641C63.2163 27.2092 63.2379 27.4867 63.2379 27.8003H63.2416Z" fill="#81827E"/>
<path id="Vector_16" fill-rule="evenodd" clip-rule="evenodd" d="M65.9665 28.4022H68.3309V28.2219C68.3309 27.7642 68.2877 27.4074 68.2012 27.1406C68.1147 26.8775 67.9885 26.6649 67.8155 26.5099C67.6497 26.3585 67.4767 26.254 67.2965 26.1963C67.1163 26.135 66.9288 26.1062 66.7306 26.1062C66.4819 26.1062 66.2584 26.1495 66.0602 26.236C65.862 26.3225 65.6817 26.4558 65.5231 26.636C65.3501 26.8343 65.2276 27.0505 65.1483 27.292C65.069 27.5335 65.033 27.8255 65.033 28.1751C65.033 28.4923 65.0762 28.777 65.1627 29.0293C65.2492 29.2816 65.3682 29.5015 65.5231 29.6781C65.6781 29.8583 65.8692 29.9953 66.0926 30.089C66.3161 30.1863 66.5684 30.2332 66.8495 30.2332C67.383 30.2332 67.8552 30.0565 68.266 29.7069L67.9308 29.1843C67.6245 29.4438 67.2929 29.5736 66.9433 29.5736C66.7486 29.5736 66.59 29.5411 66.4675 29.4763C66.3413 29.4114 66.2404 29.3285 66.1647 29.2203C66.089 29.1158 66.0386 28.9933 66.0097 28.8599C65.9809 28.7266 65.9665 28.5932 65.9665 28.4598V28.3986V28.4022ZM67.4371 27.7786H65.9665C65.9665 27.4542 66.0278 27.2055 66.1539 27.0289C66.2801 26.8523 66.4675 26.7658 66.7198 26.7658C66.9397 26.7658 67.1127 26.8523 67.2424 27.0289C67.3722 27.2055 67.4334 27.4542 67.4334 27.7786H67.4371Z" fill="#81827E"/>
<path id="Vector_17" fill-rule="evenodd" clip-rule="evenodd" d="M72.0325 28.9064C72.0325 28.791 72.0181 28.6793 71.9857 28.5712C71.9532 28.463 71.9028 28.3585 71.8271 28.2648C71.7514 28.1675 71.6505 28.081 71.5207 28.0053C71.391 27.926 71.2288 27.8611 71.0341 27.8107L70.5475 27.6845C70.3529 27.634 70.2159 27.5728 70.1366 27.5043C70.061 27.4358 70.0213 27.3421 70.0213 27.2268C70.0213 27.079 70.0754 26.96 70.1835 26.8663C70.2916 26.7762 70.4358 26.7294 70.616 26.7294C70.771 26.7294 70.9224 26.751 71.0738 26.7978C71.2252 26.8447 71.391 26.9168 71.5712 27.0141L71.8523 26.4158C71.6865 26.3257 71.4955 26.2464 71.2792 26.1743C71.063 26.1022 70.8215 26.0662 70.5511 26.0662C70.3349 26.0662 70.133 26.0986 69.9564 26.1599C69.7762 26.2211 69.6212 26.3077 69.4915 26.4158C69.3617 26.5239 69.2608 26.6573 69.1923 26.8087C69.1238 26.96 69.0878 27.133 69.0878 27.3169C69.0878 27.598 69.1707 27.8323 69.3365 28.0197C69.5023 28.2071 69.733 28.3333 70.0285 28.3982L70.5043 28.4991C70.7278 28.5459 70.89 28.6108 70.9909 28.6973C71.0918 28.7838 71.1423 28.8992 71.1423 29.0505C71.1423 29.2163 71.081 29.3497 70.962 29.4506C70.8431 29.5516 70.6917 29.602 70.5043 29.602C70.2808 29.602 70.0574 29.5588 69.8339 29.4723C69.6104 29.3858 69.4086 29.292 69.232 29.1875L68.9292 29.8003C69.1815 29.9408 69.4374 30.0489 69.6897 30.1246C69.942 30.2003 70.1907 30.2364 70.443 30.2364C70.6953 30.2364 70.8972 30.2039 71.0918 30.1391C71.2864 30.0742 71.4522 29.9841 71.5928 29.8687C71.7334 29.7534 71.8415 29.6092 71.9208 29.4434C72.0001 29.2776 72.0361 29.0974 72.0361 28.8992L72.0325 28.9064Z" fill="#81827E"/>
<path id="Vector_18" fill-rule="evenodd" clip-rule="evenodd" d="M72.948 30.1356H73.8022V26.1096L72.948 26.2646V30.1356ZM73.9428 25.0499C73.9428 24.8841 73.8887 24.7471 73.777 24.639C73.6652 24.5309 73.5355 24.4768 73.3877 24.4768C73.2291 24.4768 73.0958 24.5309 72.9876 24.6426C72.8795 24.7543 72.8254 24.8913 72.8254 25.0499C72.8254 25.2085 72.8795 25.3382 72.984 25.45C73.0886 25.5617 73.2183 25.6158 73.3733 25.6158C73.5283 25.6158 73.6689 25.5617 73.777 25.45C73.8887 25.3382 73.9428 25.2049 73.9428 25.0499Z" fill="#81827E"/>
<path id="Vector_19" fill-rule="evenodd" clip-rule="evenodd" d="M78.7403 26.5746L78.3438 26.0376C78.1167 26.2178 77.8788 26.3079 77.6301 26.3079C77.5544 26.3079 77.4716 26.2971 77.3887 26.2755C77.3058 26.2539 77.2156 26.2322 77.1219 26.207C77.0282 26.1818 76.9237 26.1565 76.812 26.1385C76.7002 26.1205 76.5777 26.1061 76.4371 26.1061C76.2064 26.1061 75.9938 26.1385 75.7991 26.1998C75.6045 26.2611 75.4423 26.3512 75.3053 26.4665C75.1684 26.5819 75.0639 26.7224 74.9882 26.8846C74.9125 27.0468 74.8764 27.2306 74.8764 27.4325C74.8764 28.002 75.1756 28.3732 75.7703 28.5426C75.554 28.6111 75.3738 28.6904 75.2333 28.7877C75.0927 28.885 75.0242 29.0292 75.0242 29.2202C75.0242 29.3175 75.0422 29.404 75.0783 29.4797C75.1143 29.5554 75.1792 29.6167 75.2729 29.6672C75.3666 29.7176 75.4964 29.7537 75.6658 29.7789C75.8352 29.8041 76.0514 29.8185 76.3146 29.8185C76.6894 29.8185 76.9633 29.8546 77.14 29.9231C77.3166 29.9952 77.4031 30.1357 77.4031 30.3484C77.4031 30.525 77.3238 30.6692 77.1688 30.7809C77.0138 30.8926 76.7795 30.9467 76.4659 30.9467C76.1848 30.9467 75.9685 30.8998 75.8208 30.8061C75.673 30.7124 75.5973 30.5755 75.5973 30.4024C75.5973 30.3412 75.6081 30.2835 75.6297 30.2222L75.6622 30.1321H74.862L74.8224 30.2691C74.7971 30.3628 74.7827 30.4529 74.7827 30.5466C74.7827 30.7304 74.826 30.889 74.9161 31.0224C75.0062 31.1558 75.1251 31.2675 75.2837 31.354C75.4387 31.4405 75.6261 31.5054 75.8424 31.545C76.0586 31.5847 76.2929 31.6063 76.5488 31.6063C77.0787 31.6063 77.504 31.4982 77.8212 31.2783C78.142 31.062 78.3005 30.7376 78.3005 30.3159C78.3005 30.1141 78.2609 29.9411 78.1852 29.8041C78.1059 29.6636 78.005 29.5482 77.8824 29.4581C77.7563 29.368 77.6193 29.2995 77.4643 29.2599C77.3094 29.2166 77.1544 29.1986 76.9994 29.1986C76.7651 29.1986 76.5849 29.1986 76.4551 29.195C76.3254 29.195 76.2281 29.1842 76.1632 29.1734C76.0983 29.1626 76.0586 29.1445 76.0442 29.1229C76.0298 29.1013 76.0226 29.0761 76.0226 29.04C76.0226 28.9787 76.0767 28.9175 76.1812 28.8526C76.2857 28.7877 76.4083 28.73 76.5452 28.6796C76.7759 28.6796 76.9814 28.6471 77.1652 28.5859C77.3454 28.5246 77.5004 28.4381 77.6265 28.3336C77.7527 28.229 77.85 28.0993 77.9185 27.9515C77.987 27.8037 78.023 27.6451 78.023 27.4721C78.023 27.3388 78.0014 27.2126 77.9581 27.1045C77.9149 26.9927 77.8716 26.9135 77.8356 26.863C77.7959 26.8125 77.7743 26.7873 77.7707 26.7801L77.8464 26.8053C77.9041 26.8197 77.9798 26.8269 78.0699 26.8269C78.2032 26.8269 78.3258 26.8089 78.4303 26.7693C78.5348 26.7296 78.643 26.6648 78.7547 26.571L78.7403 26.5746ZM77.1147 27.4361C77.1147 27.8758 76.8913 28.0957 76.4407 28.0957C76.2245 28.0957 76.0586 28.0452 75.9433 27.9407C75.828 27.8398 75.7703 27.6704 75.7703 27.4397C75.7703 27.209 75.828 27.0504 75.9433 26.9351C76.0586 26.8197 76.2245 26.7621 76.4407 26.7621C76.8876 26.7621 77.1147 26.9855 77.1147 27.4325V27.4361Z" fill="#81827E"/>
<path id="Vector_20" fill-rule="evenodd" clip-rule="evenodd" d="M81.4616 30.136H82.3158V27.1984C82.3158 26.8344 82.2221 26.5641 82.0346 26.3839C81.8472 26.2036 81.5985 26.1135 81.2849 26.1135C81.0651 26.1135 80.8668 26.1604 80.6794 26.2505C80.4956 26.3406 80.2938 26.4776 80.0739 26.6578C80.0739 26.5533 80.0631 26.4559 80.0378 26.3658C80.0126 26.2757 79.9802 26.1856 79.9333 26.0991L79.1548 26.3154C79.2125 26.4559 79.2521 26.5929 79.2701 26.7299C79.2917 26.8668 79.3026 27.0398 79.3026 27.2453V30.136H80.1568V27.2885C80.2865 27.1588 80.4271 27.0543 80.5857 26.9714C80.7443 26.8885 80.8849 26.8488 81.0074 26.8488C81.1696 26.8488 81.2849 26.8957 81.3534 26.9894C81.4183 27.0831 81.4544 27.2633 81.4544 27.5336V30.1396L81.4616 30.136Z" fill="#81827E"/>
</g>
<path id="Vector_21" d="M81.7859 22.9022H69.9313C68.2517 20.7324 66.1431 17.8706 65.7106 17.2326C66.1611 17.0524 65.6674 17.2182 66.3666 16.883C67.0514 16.555 67.6678 15.9819 68.2048 15.1818C68.7382 14.3924 69.0014 13.3111 69.0014 11.9595C69.0014 9.79688 68.2336 8.21818 66.6982 7.2378C65.4619 6.42322 64.0166 5.9078 62.0342 5.80328C64.395 2.29626 68.4066 0.00390625 72.9589 0.00390625C80.2216 0.00390625 86.1111 5.89339 86.1111 13.1561C86.1111 17.0236 84.4423 20.4981 81.7859 22.9058V22.9022ZM59.8031 13.1525C59.8031 12.2082 59.904 11.2855 60.0914 10.3952C62.0991 11.0872 61.8071 13.9671 59.8536 14.3311C59.8175 13.9419 59.8031 13.549 59.8031 13.1525Z" fill="#F99B1C"/>
<path id="Vector_22" d="M74.0114 10.3517C74.5592 10.9897 74.9449 11.1086 75.1539 10.5535C75.2008 10.4959 75.6874 9.00008 76.7182 6.11301C77.0066 5.28041 76.6497 4.94521 75.6081 5.21553C72.7859 5.83187 71.0089 6.23195 70.3385 6.46263C69.4086 6.7726 69.2248 7.06095 69.8411 7.31686C71.5712 7.99087 72.9625 9.0217 74.0114 10.3553V10.3517Z" fill="white"/>
<path id="Vector_23" d="M81.3137 3.60418C80.8199 2.96261 80.463 2.6238 80.2972 2.58776C80.081 2.55892 79.7854 2.80041 79.4646 3.31583C79.1402 3.77719 78.6501 4.2025 78.1058 4.63502C77.6517 4.89813 77.6805 5.16125 78.2247 5.26577C79.443 5.67306 80.9676 6.42277 82.7266 7.41396C83.1302 7.69149 83.3465 7.72393 83.4366 7.55453C83.4727 7.38873 83.4366 7.07155 83.2348 6.66786C82.7482 5.59737 82.103 4.5413 81.3101 3.60778L81.3137 3.60418Z" fill="white"/>
<path id="Vector_24" d="M83.3323 9.56578C83.1088 10.4993 82.6078 11.8329 81.7752 13.5774C81.6094 14.0243 81.7824 14.1649 82.3555 13.9991C83.462 13.8297 84.4244 13.8369 85.2137 14.2334C85.5489 14.3595 85.621 14.0315 85.5381 13.2386C85.3723 11.6527 85.0083 10.247 84.4064 9.07919C83.9378 8.1673 83.5774 8.31147 83.3359 9.56578H83.3323Z" fill="white"/>
<path id="Vector_25" d="M80.5748 14.7957C80.9713 14.4857 81.0001 14.2694 80.6144 14.1505C78.7402 13.116 77.1182 12.4312 75.7882 11.9843C75.4026 11.8653 75.1322 11.8401 75.0313 11.905C74.9881 12.0167 74.9592 12.233 75.0025 12.6547C75.226 15.3039 75.1503 17.1313 74.7178 18.0828C74.3321 18.9803 74.6168 19.1641 75.5179 18.5874C76.8155 17.7044 78.5564 16.45 80.5712 14.7957H80.5748Z" fill="white"/>
<path id="Vector_26" d="M39.226 6.95605H33.6897V17.5492C33.6897 18.9044 34.1799 20.202 35.1567 21.4491C36.1334 22.6926 38.3393 23.3161 41.7706 23.3161C46.8491 23.3161 49.383 21.3482 49.383 17.4158V6.95605H45.3425V17.2717C45.3425 18.1655 45.1623 18.9044 44.7946 19.4811C44.4342 20.0686 43.6377 20.3642 42.4014 20.3642C41.4931 20.3642 40.8155 20.22 40.3541 19.9497C39.8855 19.6793 39.5864 19.3261 39.4566 18.8936C39.3052 18.4791 39.226 17.9637 39.226 17.369V6.95605Z" fill="#231F20"/>
<path id="Vector_27" d="M31.682 22.8656V20.1948H23.5615L31.5739 6.95605H16.9259V9.63768H23.9111L15.7905 22.8656H31.6856H31.682Z" fill="#231F20"/>
<path id="Vector_28" d="M0 6.95605V9.63768H4.67842V22.8656H10.2255V9.63768H14.8967V6.95605H0Z" fill="#231F20"/>
<path id="Vector_29" d="M67.1307 14.5219C67.52 13.8911 67.711 13.0224 67.711 11.9411C67.711 10.2075 67.1524 8.94595 66.035 8.1602C64.9285 7.35644 63.4615 6.95996 61.6341 6.95996H52.0142V22.8695H57.5612V14.9544L62.2324 22.8947L68.2084 22.8659L63.5985 16.4862C63.6381 16.4682 63.8868 16.443 64.3554 16.3853C64.8059 16.3132 65.2817 16.151 65.7935 15.8807C66.2909 15.6176 66.7415 15.1598 67.1307 14.5182V14.5219ZM59.7563 9.64158C60.1167 9.64879 60.4231 9.69565 60.6646 9.77855C61.0322 9.89749 61.3242 10.0597 61.5116 10.2832C61.9693 10.7337 62.1892 11.4113 62.1892 12.3124C62.1892 12.781 62.1495 13.1414 62.0811 13.3865C62.0018 13.6748 61.8612 13.9271 61.6521 14.1542C61.4323 14.4065 61.1439 14.5975 60.7835 14.7309C60.4447 14.8751 60.1239 14.9472 59.8464 14.958H57.5612V9.64158H59.7563Z" fill="#231F20"/>
</g>
<defs>
<clipPath id="clip0_46_23100">
<rect width="86.1111" height="31.8082" fill="white"/>
</clipPath>
</defs>
</svg>
