<svg width="18" height="17" viewBox="0 0 18 17" fill="none" xmlns="http://www.w3.org/2000/svg">
<path d="M14.8926 10.9406C13.9849 10.033 12.9046 9.36107 11.7259 8.95433C12.9883 8.08483 13.8177 6.62966 13.8177 4.98421C13.8177 2.32773 11.6565 0.166504 8.99999 0.166504C6.34351 0.166504 4.18228 2.32773 4.18228 4.98421C4.18228 6.62966 5.01168 8.08483 6.27414 8.95433C5.09543 9.36107 4.01509 10.033 3.10744 10.9406C1.53349 12.5146 0.666656 14.6073 0.666656 16.8332H1.96874C1.96874 12.9561 5.12294 9.80192 8.99999 9.80192C12.877 9.80192 16.0312 12.9561 16.0312 16.8332H17.3333C17.3333 14.6073 16.4665 12.5146 14.8926 10.9406ZM8.99999 8.49984C7.06148 8.49984 5.48437 6.92275 5.48437 4.98421C5.48437 3.04567 7.06148 1.46859 8.99999 1.46859C10.9385 1.46859 12.5156 3.04567 12.5156 4.98421C12.5156 6.92275 10.9385 8.49984 8.99999 8.49984Z" fill="white"/>
</svg>
